<svg width="59" height="51" viewBox="0 0 59 51" fill="none" xmlns="http://www.w3.org/2000/svg">
<rect width="59" height="51" rx="11" fill="white"/>
<path d="M13.138 16.852C15.0447 16.852 16.7173 17.2247 18.156 17.97C19.612 18.7153 20.73 19.7813 21.51 21.168C22.3073 22.5373 22.706 24.132 22.706 25.952C22.706 27.772 22.3073 29.3667 21.51 30.736C20.73 32.088 19.612 33.1367 18.156 33.882C16.7173 34.6273 15.0447 35 13.138 35H6.794V16.852H13.138ZM13.008 31.906C14.9147 31.906 16.388 31.386 17.428 30.346C18.468 29.306 18.988 27.8413 18.988 25.952C18.988 24.0627 18.468 22.5893 17.428 21.532C16.388 20.4573 14.9147 19.92 13.008 19.92H10.434V31.906H13.008ZM36.6367 16.852V19.79H29.0707V24.444H34.8687V27.33H29.0707V35H25.4307V16.852H36.6367ZM52.4518 22.468C52.4518 23.4387 52.2178 24.3487 51.7498 25.198C51.2992 26.0473 50.5798 26.732 49.5918 27.252C48.6212 27.772 47.3905 28.032 45.8998 28.032H42.8578V35H39.2178V16.852H45.8998C47.3038 16.852 48.4998 17.0947 49.4878 17.58C50.4758 18.0653 51.2125 18.7327 51.6978 19.582C52.2005 20.4313 52.4518 21.3933 52.4518 22.468ZM45.7438 25.094C46.7492 25.094 47.4945 24.8687 47.9798 24.418C48.4652 23.95 48.7078 23.3 48.7078 22.468C48.7078 20.7 47.7198 19.816 45.7438 19.816H42.8578V25.094H45.7438Z" fill="#30F9EF"/>
</svg>
